HIERARCHY
ROOT Hips
{
  OFFSET -276.719 75.5941 641.432
  CHANNELS 6 Xposition Yposition Zposition Zrotation Xrotation Yrotation
  JOINT Spine
  {
    OFFSET 0 8 0
    CHANNELS 6 Xposition Yposition Zposition Zrotation Xrotation Yrotation
    JOINT Spine1
    {
      OFFSET 0 8 0
      CHANNELS 6 Xposition Yposition Zposition Zrotation Xrotation Yrotation
      JOINT Spine2
      {
        OFFSET 0 8 0
        CHANNELS 6 Xposition Yposition Zposition Zrotation Xrotation Yrotation
        JOINT Spine3
        {
          OFFSET 0 8 0
          CHANNELS 6 Xposition Yposition Zposition Zrotation Xrotation Yrotation
          JOINT Neck
          {
            OFFSET 0 17 0
            CHANNELS 6 Xposition Yposition Zposition Zrotation Xrotation Yrotation
            JOINT Head
            {
              OFFSET 0 10.8 0
              CHANNELS 6 Xposition Yposition Zposition Zrotation Xrotation Yrotation
              End Site
              {
                OFFSET 0 20.25 0
              }
            }
          }
          JOINT LeftShoulder
          {
            OFFSET 5 17 0
            CHANNELS 6 Xposition Yposition Zposition Zrotation Xrotation Yrotation
            JOINT LeftShoulder2
            {
              OFFSET 6.45 0 0
              CHANNELS 6 Xposition Yposition Zposition Zrotation Xrotation Yrotation
              JOINT LeftArm
              {
                OFFSET 6.45 0 0
                CHANNELS 6 Xposition Yposition Zposition Zrotation Xrotation Yrotation
                JOINT LeftForeArm
                {
                  OFFSET 0 -32.4 -2
                  CHANNELS 6 Xposition Yposition Zposition Zrotation Xrotation Yrotation
                  JOINT LeftHand
                  {
                    OFFSET 0 -25.65 2
                    CHANNELS 6 Xposition Yposition Zposition Zrotation Xrotation Yrotation
                    JOINT LeftHandThumb1
                    {
                      OFFSET -0.5 -1.5 2.65
                      CHANNELS 6 Xposition Yposition Zposition Zrotation Xrotation Yrotation
                      JOINT LeftHandThumb2
                      {
                        OFFSET 0 -3.8 3.7
                        CHANNELS 6 Xposition Yposition Zposition Zrotation Xrotation Yrotation
                        JOINT LeftHandThumb3
                        {
                          OFFSET 0 -3 2.7
                          CHANNELS 6 Xposition Yposition Zposition Zrotation Xrotation Yrotation
                          End Site
                          {
                            OFFSET 0 -2.3 1.8
                          }
                        }
                      }
                    }
                    JOINT LeftHandIndex
                    {
                      OFFSET 0 -1.9 1.6
                      CHANNELS 6 Xposition Yposition Zposition Zrotation Xrotation Yrotation
                      JOINT LeftHandIndex1
                      {
                        OFFSET 0 -8.3 1.9
                        CHANNELS 6 Xposition Yposition Zposition Zrotation Xrotation Yrotation
                        JOINT LeftHandIndex2
                        {
                          OFFSET 0 -4.5 0
                          CHANNELS 6 Xposition Yposition Zposition Zrotation Xrotation Yrotation
                          JOINT LeftHandIndex3
                          {
                            OFFSET 0 -3.4 0
                            CHANNELS 6 Xposition Yposition Zposition Zrotation Xrotation Yrotation
                            End Site
                            {
                              OFFSET 0 -2.6 0
                            }
                          }
                        }
                      }
                    }
                    JOINT LeftHandMiddle
                    {
                      OFFSET -0.25 -2.2 0.4
                      CHANNELS 6 Xposition Yposition Zposition Zrotation Xrotation Yrotation
                      JOINT LeftHandMiddle1
                      {
                        OFFSET 0 -8.3 1
                        CHANNELS 6 Xposition Yposition Zposition Zrotation Xrotation Yrotation
                        JOINT LeftHandMiddle2
                        {
                          OFFSET 0 -4.65 0
                          CHANNELS 6 Xposition Yposition Zposition Zrotation Xrotation Yrotation
                          JOINT LeftHandMiddle3
                          {
                            OFFSET 0 -3.3 0
                            CHANNELS 6 Xposition Yposition Zposition Zrotation Xrotation Yrotation
                            End Site
                            {
                              OFFSET 0 -2.7 0
                            }
                          }
                        }
                      }
                    }
                    JOINT LeftHandRing
                    {
                      OFFSET -0.5 -2.15 -0.8
                      CHANNELS 6 Xposition Yposition Zposition Zrotation Xrotation Yrotation
                      JOINT LeftHandRing1
                      {
                        OFFSET 0 -7.75 -0.2
                        CHANNELS 6 Xposition Yposition Zposition Zrotation Xrotation Yrotation
                        JOINT LeftHandRing2
                        {
                          OFFSET 0 -3.8 0
                          CHANNELS 6 Xposition Yposition Zposition Zrotation Xrotation Yrotation
                          JOINT LeftHandRing3
                          {
                            OFFSET 0 -3.4 0
                            CHANNELS 6 Xposition Yposition Zposition Zrotation Xrotation Yrotation
                            End Site
                            {
                              OFFSET 0 -2.6 0
                            }
                          }
                        }
                      }
                    }
                    JOINT LeftHandPinky
                    {
                      OFFSET -0.75 -1.75 -1.85
                      CHANNELS 6 Xposition Yposition Zposition Zrotation Xrotation Yrotation
                      JOINT LeftHandPinky1
                      {
                        OFFSET 0 -7.15 -1
                        CHANNELS 6 Xposition Yposition Zposition Zrotation Xrotation Yrotation
                        JOINT LeftHandPinky2
                        {
                          OFFSET 0 -3 0
                          CHANNELS 6 Xposition Yposition Zposition Zrotation Xrotation Yrotation
                          JOINT LeftHandPinky3
                          {
                            OFFSET 0 -2.35 0
                            CHANNELS 6 Xposition Yposition Zposition Zrotation Xrotation Yrotation
                            End Site
                            {
                              OFFSET 0 -2.1 0
                            }
                          }
                        }
                      }
                    }
                  }
                }
              }
            }
          }
          JOINT RightShoulder
          {
            OFFSET -5 17 0
            CHANNELS 6 Xposition Yposition Zposition Zrotation Xrotation Yrotation
            JOINT RightShoulder2
            {
              OFFSET -6.45 0 0
              CHANNELS 6 Xposition Yposition Zposition Zrotation Xrotation Yrotation
              JOINT RightArm
              {
                OFFSET -6.45 0 0
                CHANNELS 6 Xposition Yposition Zposition Zrotation Xrotation Yrotation
                JOINT RightForeArm
                {
                  OFFSET 0 -32.4 -2
                  CHANNELS 6 Xposition Yposition Zposition Zrotation Xrotation Yrotation
                  JOINT RightHand
                  {
                    OFFSET 0 -25.65 2
                    CHANNELS 6 Xposition Yposition Zposition Zrotation Xrotation Yrotation
                    JOINT RightHandThumb1
                    {
                      OFFSET 0.5 -1.5 2.65
                      CHANNELS 6 Xposition Yposition Zposition Zrotation Xrotation Yrotation
                      JOINT RightHandThumb2
                      {
                        OFFSET 0 -3.8 3.7
                        CHANNELS 6 Xposition Yposition Zposition Zrotation Xrotation Yrotation
                        JOINT RightHandThumb3
                        {
                          OFFSET 0 -3 2.7
                          CHANNELS 6 Xposition Yposition Zposition Zrotation Xrotation Yrotation
                          End Site
                          {
                            OFFSET 0 -2.3 1.8
                          }
                        }
                      }
                    }
                    JOINT RightHandIndex
                    {
                      OFFSET 0 -1.9 1.6
                      CHANNELS 6 Xposition Yposition Zposition Zrotation Xrotation Yrotation
                      JOINT RightHandIndex1
                      {
                        OFFSET 0 -8.3 1.9
                        CHANNELS 6 Xposition Yposition Zposition Zrotation Xrotation Yrotation
                        JOINT RightHandIndex2
                        {
                          OFFSET 0 -4.5 0
                          CHANNELS 6 Xposition Yposition Zposition Zrotation Xrotation Yrotation
                          JOINT RightHandIndex3
                          {
                            OFFSET 0 -3.4 0
                            CHANNELS 6 Xposition Yposition Zposition Zrotation Xrotation Yrotation
                            End Site
                            {
                              OFFSET 0 -2.6 0
                            }
                          }
                        }
                      }
                    }
                    JOINT RightHandMiddle
                    {
                      OFFSET 0.25 -2.2 0.4
                      CHANNELS 6 Xposition Yposition Zposition Zrotation Xrotation Yrotation
                      JOINT RightHandMiddle1
                      {
                        OFFSET 0 -8.3 1
                        CHANNELS 6 Xposition Yposition Zposition Zrotation Xrotation Yrotation
                        JOINT RightHandMiddle2
                        {
                          OFFSET 0 -4.65 0
                          CHANNELS 6 Xposition Yposition Zposition Zrotation Xrotation Yrotation
                          JOINT RightHandMiddle3
                          {
                            OFFSET 0 -3.3 0
                            CHANNELS 6 Xposition Yposition Zposition Zrotation Xrotation Yrotation
                            End Site
                            {
                              OFFSET 0 -2.7 0
                            }
                          }
                        }
                      }
                    }
                    JOINT RightHandRing
                    {
                      OFFSET 0.5 -2.15 -0.8
                      CHANNELS 6 Xposition Yposition Zposition Zrotation Xrotation Yrotation
                      JOINT RightHandRing1
                      {
                        OFFSET 0 -7.75 -0.2
                        CHANNELS 6 Xposition Yposition Zposition Zrotation Xrotation Yrotation
                        JOINT RightHandRing2
                        {
                          OFFSET 0 -3.8 0
                          CHANNELS 6 Xposition Yposition Zposition Zrotation Xrotation Yrotation
                          JOINT RightHandRing3
                          {
                            OFFSET 0 -3.4 0
                            CHANNELS 6 Xposition Yposition Zposition Zrotation Xrotation Yrotation
                            End Site
                            {
                              OFFSET 0 -2.6 0
                            }
                          }
                        }
                      }
                    }
                    JOINT RightHandPinky
                    {
                      OFFSET 0.75 -1.75 -1.85
                      CHANNELS 6 Xposition Yposition Zposition Zrotation Xrotation Yrotation
                      JOINT RightHandPinky1
                      {
                        OFFSET 0 -7.15 -1
                        CHANNELS 6 Xposition Yposition Zposition Zrotation Xrotation Yrotation
                        JOINT RightHandPinky2
                        {
                          OFFSET 0 -3 0
                          CHANNELS 6 Xposition Yposition Zposition Zrotation Xrotation Yrotation
                          JOINT RightHandPinky3
                          {
                            OFFSET 0 -2.35 0
                            CHANNELS 6 Xposition Yposition Zposition Zrotation Xrotation Yrotation
                            End Site
                            {
                              OFFSET 0 -2.1 0
                            }
                          }
                        }
                      }
                    }
                  }
                }
              }
            }
          }
        }
      }
    }
  }
  JOINT LeftUpLeg
  {
    OFFSET 8 0 0
    CHANNELS 6 Xposition Yposition Zposition Zrotation Xrotation Yrotation
    JOINT LeftLeg
    {
      OFFSET 0 -45 -1
      CHANNELS 6 Xposition Yposition Zposition Zrotation Xrotation Yrotation
      JOINT LeftFoot
      {
        OFFSET 0 -41 -2
        CHANNELS 6 Xposition Yposition Zposition Zrotation Xrotation Yrotation
        JOINT LeftToeBase
        {
          OFFSET 0 -7.5 12.5
          CHANNELS 6 Xposition Yposition Zposition Zrotation Xrotation Yrotation
          JOINT LeftFootToe
          {
            OFFSET 0 0 4
            CHANNELS 6 Xposition Yposition Zposition Zrotation Xrotation Yrotation
            End Site
            {
              OFFSET 0 0 0
            }
          }
        }
      }
    }
  }
  JOINT RightUpLeg
  {
    OFFSET -8 0 0
    CHANNELS 6 Xposition Yposition Zposition Zrotation Xrotation Yrotation
    JOINT RightLeg
    {
      OFFSET 0 -45 -1
      CHANNELS 6 Xposition Yposition Zposition Zrotation Xrotation Yrotation
      JOINT RightFoot
      {
        OFFSET 0 -41 -2
        CHANNELS 6 Xposition Yposition Zposition Zrotation Xrotation Yrotation
        JOINT RightToeBase
        {
          OFFSET 0 -7.5 12.5
          CHANNELS 6 Xposition Yposition Zposition Zrotation Xrotation Yrotation
          JOINT RightFootToe
          {
            OFFSET 0 0 4
            CHANNELS 6 Xposition Yposition Zposition Zrotation Xrotation Yrotation
            End Site
            {
              OFFSET 0 0 0
            }
          }
        }
      }
    }
  }
}
MOTION
Frames:	3
Frame Time:	0.0111111
-274.444 73.7155 642.959 -4.27097 20.0366 175.949 0 8 -1.13687e-13 4.5264 10.7487 -18.8214 0 8 1.13687e-13 1.66211 7.24529 1.99498 -2.84217e-14 8 2.27374e-13 0.869521 3.61947 1.0231 0 8 0 0.867964 3.61127 1.02083 0 17 0 -5.54593 9.17885 2.45923 -2.84217e-14 10.8 1.13687e-13 -14.0802 21.0661 7.42464 5 17 -1.13687e-13 -7.01171 1.56757 6.42522 6.45 -2.84217e-14 0 -0.431974 1.56441 6.10703 6.45 1.42109e-14 -1.13687e-13 36.9887 -32.9494 -15.4505 0 -32.4 -2 -25.9119 -56.7844 -31.2979 2.84217e-14 -25.65 2 50.4712 28.5162 -22.2799 -0.5 -1.5 2.65 -90.5036 -64.2078 -104.691 0 -3.8 3.7 -0.0846147 29.4328 0.0405868 1.42109e-14 -3 2.7 0.0523924 65.0309 -0.145098 -2.84217e-14 -1.9 1.6 -3.18055e-15 -3.18055e-15 -3.97569e-16 -2.84217e-14 -8.3 1.9 -2.84813 9.93666 0.505159 5.68434e-14 -4.5 0 31.4362 59.9442 -34.6653 5.68434e-14 -3.4 -1.13687e-13 -19.2403 0.0103016 -0.0144121 -0.25 -2.2 0.4 -3.18055e-15 -3.18055e-15 -3.97569e-16 -2.84217e-14 -8.3 1 -7.74421 15.0913 1.55385 0 -4.65 0 37.3066 33.4311 -11.7291 0 -3.3 -1.13687e-13 -0.0432057 -0.0624575 -0.104273 -0.5 -2.15 -0.8 -3.18055e-15 -3.18055e-15 -3.97569e-16 -2.84217e-14 -7.75 -0.2 -14.9716 14.6138 2.71559 -2.84217e-14 -3.8 0 12.5879 20.2945 -2.26324 0 -3.4 -1.13687e-13 -0.00258254 -0.00832995 -0.00153989 -0.75 -1.75 -1.85 -3.18055e-15 -3.18055e-15 -3.97569e-16 5.68434e-14 -7.15 -1 -10.8689 16.4019 2.27936 2.84217e-14 -3 0 7.47067 15.4853 -1.01813 1.42109e-13 -2.35 -1.13687e-13 -0.00202778 -0.00780144 -0.000948083 -5 17 1.13687e-13 5.18343 1.2214 11.9051 -6.45 1.77636e-14 0 -1.4406 1.08913 -1.06935 -6.45 2.84217e-14 -1.13687e-13 -25.5942 -9.86895 52.226 0 -32.4 -2 -56.161 -48.0936 -88.9042 0 -25.65 2 17.1321 23.886 -22.772 0.5 -1.5 2.65 1.06607 -35.5109 -1.52087 0 -3.8 3.7 -11.0407 12.455 -5.83669 -2.84217e-14 -3 2.7 -0.214933 52.2859 0.0475393 0 -1.9 1.6 3.18055e-15 3.18055e-15 -4.96962e-15 5.68434e-14 -8.3 1.9 4.45716 17.1918 -0.836422 0 -4.5 0 1.56259 -7.69452 -2.29822 -5.68434e-14 -3.4 1.13687e-13 25.0095 0.00863823 -0.00810721 0.25 -2.2 0.4 3.18055e-15 3.18055e-15 -4.96962e-15 0 -8.3 1 30.9206 18.3207 -7.28053 0 -4.65 -1.13687e-13 -0.306255 3.3796 3.02568 -5.68434e-14 -3.3 -1.13687e-13 72.5087 0.000308796 0.00202794 0.5 -2.15 -0.8 3.18055e-15 3.18055e-15 -4.96962e-15 0 -7.75 -0.2 56.4492 7.51424 -9.18788 5.68434e-14 -3.8 0 -5.69395 8.44104 7.41897 0 -3.4 0 61.0592 0.0159512 0.00500648 0.75 -1.75 -1.85 3.18055e-15 3.18055e-15 -4.96962e-15 0 -7.15 -1 86.1935 0.133189 -12.5348 0 -3 -1.13687e-13 -2.0362 14.6634 7.63984 -5.68434e-14 -2.35 0 36.5464 -0.00553257 -0.00451438 8 5.68434e-14 -2.27374e-13 7.68986 -30.0189 176.639 5.68434e-14 -45 -1 10.5419 -29.7694 175.434 2.84217e-14 -41 -2 -9.8438 6.62182 26.6492 5.68434e-14 -7.5 12.5 -3.97569e-16 0 -1.59028e-15 -5.68434e-14 -2.84217e-14 4 5.55452 -14.7579 55.238 -8 0 -1.13687e-13 -1.29825 -36.7777 179.374 5.68434e-14 -45 -1 -25.7749 -73.3157 174.446 -5.68434e-14 -41 -2 -21.4328 7.67626 9.93673 0 -7.5 12.5 0.00174259 -16.7045 -0.0052462 0 0 4 3.2633 17.0362 25.5361 
-274.431 73.716 642.966 -4.27377 20.045 175.925 0 8 0 4.52604 10.7491 -18.8414 0 8 1.13687e-13 1.66013 7.25674 2.00462 2.84217e-14 8 0 0.868709 3.62521 1.02795 0 8 0 0.867346 3.61702 1.02564 -8.52651e-14 17 -1.13687e-13 -5.56948 9.22228 2.45443 2.84217e-14 10.8 1.13687e-13 -14.1452 21.1662 7.42972 5 17 -1.13687e-13 -7.06763 1.56398 6.41553 6.45 -4.26326e-14 -2.27374e-13 -0.430858 1.56345 6.12922 6.45 2.84217e-14 0 37.1071 -32.746 -15.3572 0 -32.4 -2 -26.0259 -56.9689 -31.531 -5.68434e-14 -25.65 2 50.6016 28.4571 -22.1837 -0.5 -1.5 2.65 -90.6943 -64.2184 -104.799 0 -3.8 3.7 -0.0848727 29.3257 0.0406224 0 -3 2.7 0.0522918 65.0379 -0.145016 2.84217e-14 -1.9 1.6 -2.38542e-15 3.18055e-15 -1.19271e-15 -5.68434e-14 -8.3 1.9 -2.67136 9.78919 0.482139 5.68434e-14 -4.5 0 29.6444 59.9414 -34.6654 4.26326e-14 -3.4 0 -20.3455 0.0077044 -0.0146108 -0.25 -2.2 0.4 -2.38542e-15 3.18055e-15 -1.19271e-15 0 -8.3 1 -8.79518 15.3863 1.75885 0 -4.65 0 37.3067 33.431 -11.7276 5.68434e-14 -3.3 1.13687e-13 -0.0422377 -0.0621306 -0.102924 -0.5 -2.15 -0.8 -2.38542e-15 3.18055e-15 -1.19271e-15 0 -7.75 -0.2 -17.7988 14.3035 3.133 0 -3.8 1.13687e-13 12.5884 20.2947 -2.26476 2.84217e-14 -3.4 -1.13687e-13 -0.00285931 -0.0076208 -0.00181093 -0.75 -1.75 -1.85 -2.38542e-15 3.18055e-15 -1.19271e-15 2.84217e-14 -7.15 -1 -13.484 15.9706 2.66744 0 -3 0 7.47068 15.4854 -1.01817 1.13687e-13 -2.35 -2.27374e-13 -0.00204095 -0.00829129 -0.00105496 -5 17 0 5.17741 1.24732 11.9125 -6.45 1.06581e-14 -1.13687e-13 -1.43678 1.08966 -1.06323 -6.45 7.10543e-15 0 -25.7563 -9.85624 52.204 0 -32.4 -2 -56.1537 -48.2127 -88.9821 0 -25.65 2 17.1487 23.8422 -22.7912 0.5 -1.5 2.65 1.09014 -35.5257 -1.52553 0 -3.8 3.7 -11.0336 12.4481 -5.83627 -2.84217e-14 -3 2.7 -0.21598 52.2801 0.0482642 5.68434e-14 -1.9 1.6 -9.34288e-15 -3.18055e-15 -6.75868e-15 0 -8.3 1.9 4.56922 17.3918 -0.865631 0 -4.5 -1.13687e-13 1.55914 -7.66389 -2.27797 0 -3.4 0 24.917 0.00867308 -0.00946613 0.25 -2.2 0.4 -9.34288e-15 -3.18055e-15 -6.75868e-15 0 -8.3 1 30.9734 18.4772 -7.3325 -5.68434e-14 -4.65 -1.13687e-13 -0.335208 3.37956 3.02614 5.68434e-14 -3.3 0 72.4477 0.000269094 0.00202794 0.5 -2.15 -0.8 -9.34288e-15 -3.18055e-15 -6.75868e-15 0 -7.75 -0.2 56.4406 7.60687 -9.22154 5.68434e-14 -3.8 0 -6.06649 8.441 7.41885 5.68434e-14 -3.4 0 60.4692 0.0157215 0.00581379 0.75 -1.75 -1.85 -9.34288e-15 -3.18055e-15 -6.75868e-15 5.68434e-14 -7.15 -1 86.1654 0.1712 -12.5488 -2.84217e-14 -3 -2.27374e-13 -3.03841 14.6634 7.63986 -5.68434e-14 -2.35 0 35.7895 -0.00553779 -0.00450037 8 5.68434e-14 -1.13687e-13 7.70094 -29.9976 176.64 0 -45 -1 10.5342 -29.7459 175.45 0 -41 -2 -9.86351 6.6292 26.6505 0 -7.5 12.5 -9.93923e-16 4.77083e-15 -1.59028e-15 -1.7053e-13 -2.84217e-14 4 5.55379 -14.7984 55.2432 -8 0 -1.13687e-13 -1.29018 -36.7714 179.375 2.84217e-14 -45 -1 -25.7697 -73.3068 174.464 5.68434e-14 -41 -2 -21.4544 7.6949 9.94299 0 -7.5 12.5 0.0020247 -16.649 -0.00509725 0 0 4 3.26392 16.9802 25.5388 
-274.421 73.7166 642.973 -4.27444 20.054 175.896 2.84217e-14 8 0 4.52567 10.7495 -18.8624 2.84217e-14 8 2.27374e-13 1.65786 7.26876 2.01608 -5.68434e-14 8 1.13687e-13 0.867808 3.63118 1.03374 2.84217e-14 8 0 0.866656 3.623 1.03138 -2.84217e-14 17 -1.13687e-13 -5.59246 9.26559 2.44931 -5.68434e-14 10.8 1.13687e-13 -14.2072 21.2679 7.43405 5 17 -1.13687e-13 -7.12003 1.5577 6.41228 6.45 -4.26326e-14 -1.13687e-13 -0.429733 1.56252 6.15125 6.45 2.84217e-14 0 37.2155 -32.5388 -15.2831 2.84217e-14 -32.4 -2 -26.1197 -57.1915 -31.7706 -2.84217e-14 -25.65 2 50.7809 28.3914 -22.138 -0.5 -1.5 2.65 -91.0398 -64.2839 -105.022 -1.42109e-14 -3.8 3.7 -0.0851151 29.2209 0.0406384 1.42109e-14 -3 2.7 0.0526981 65.1389 -0.145358 0 -1.9 1.6 -5.56597e-15 0 -1.98785e-15 -8.52651e-14 -8.3 1.9 -2.49923 9.63155 0.459447 5.68434e-14 -4.5 0 27.9206 59.9386 -34.6628 4.26326e-14 -3.4 0 -21.4011 0.00498559 -0.0136744 -0.25 -2.2 0.4 -5.56597e-15 0 -1.98785e-15 0 -8.3 1 -9.83138 15.6626 1.96412 0 -4.65 1.13687e-13 37.3068 33.431 -11.7261 5.68434e-14 -3.3 0 -0.041266 -0.0617848 -0.101552 -0.5 -2.15 -0.8 -5.56597e-15 0 -1.98785e-15 0 -7.75 -0.2 -20.5772 14.0052 3.53219 -2.84217e-14 -3.8 1.13687e-13 12.5889 20.2949 -2.26601 -2.84217e-14 -3.4 -1.13687e-13 -0.00304232 -0.00680737 -0.00200677 -0.75 -1.75 -1.85 -5.56597e-15 0 -1.98785e-15 5.68434e-14 -7.15 -1 -16.1404 15.5748 3.0504 -1.42109e-14 -3 -1.13687e-13 7.47091 15.4856 -1.01809 1.13687e-13 -2.35 0 -0.00183671 -0.00874825 -0.00104842 -5 17 0 5.16916 1.27017 11.9123 -6.45 7.10543e-15 0 -1.43301 1.0902 -1.05686 -6.45 7.10543e-15 1.13687e-13 -25.9124 -9.85095 52.205 1.13687e-13 -32.4 -2 -56.1467 -48.3136 -89.0493 0 -25.65 2 17.1793 23.7936 -22.8009 0.5 -1.5 2.65 1.10874 -35.5401 -1.54327 0 -3.8 3.7 -11.0247 12.4395 -5.8355 -5.68434e-14 -3 2.7 -0.217006 52.2698 0.0489699 5.68434e-14 -1.9 1.6 -2.18663e-15 -3.18055e-15 -0 5.68434e-14 -8.3 1.9 4.62662 17.4913 -0.881262 5.68434e-14 -4.5 1.13687e-13 1.55896 -7.65697 -2.27341 5.68434e-14 -3.4 1.13687e-13 24.8965 0.00870834 -0.0107919 0.25 -2.2 0.4 -2.18663e-15 -3.18055e-15 -0 -5.68434e-14 -8.3 1 30.9662 18.5319 -7.34374 0 -4.65 -2.27374e-13 -0.316763 3.37953 3.02636 0 -3.3 0 72.4865 0.000228873 0.00202794 0.5 -2.15 -0.8 -2.18663e-15 -3.18055e-15 -0 0 -7.75 -0.2 56.4746 7.61495 -9.22495 0 -3.8 0 -6.22802 8.44095 7.41873 -5.68434e-14 -3.4 1.13687e-13 60.2237 0.015492 0.00658908 0.75 -1.75 -1.85 -2.18663e-15 -3.18055e-15 -0 0 -7.15 -1 86.1507 0.188332 -12.5539 5.68434e-14 -3 -1.13687e-13 -3.64942 14.6634 7.63988 1.13687e-13 -2.35 -1.13687e-13 35.3405 -0.00554307 -0.00448631 8 5.68434e-14 -1.13687e-13 7.71308 -29.9765 176.641 5.68434e-14 -45 -1 10.527 -29.7253 175.471 0 -41 -2 -9.88178 6.63495 26.6516 0 -7.5 12.5 -9.93923e-16 -1.59028e-15 1.59028e-15 -1.13687e-13 -2.84217e-14 4 5.55248 -14.8392 55.2485 -8 0 0 -1.28278 -36.765 179.375 0 -45 -1 -25.7659 -73.2979 174.486 5.68434e-14 -41 -2 -21.4766 7.7148 9.94958 0 -7.5 12.5 0.00230723 -16.5974 -0.00494659 0 0 4 3.26427 16.9287 25.5421 
